# xmcd
#
# Track frame offsets:
#	150
#	13604
#	25737
#	39948
#	53979
#
# Disc length: 886 seconds
#
# Revision: 0
# Processed by: cddbd v1.5.2PL0 Copyright (c) Steve Scherf et al.
# Submitted via: audiograbber 1.83.01
#
DISCID=31037405
DTITLE=Weekend - Musik Für Die Die Nicht So Oft Denken Und Wenn Doch Dann Nur U
DTITLE=ngern
DYEAR=2017
DGENRE=Hip-Hop
TTITLE0=Ja, Ich Will!
TTITLE1=Gutmensch
TTITLE2=Ketchup
TTITLE3=Mein Haus
TTITLE4=Schnaps, Du Arschloch!
EXTD=
EXTT0=
EXTT1=
EXTT2=
EXTT3=
EXTT4=
PLAYORDER=
